<svg width="65" height="60" viewBox="0 0 65 60" fill="none" xmlns="http://www.w3.org/2000/svg">
<path d="M64.2087 10.4386C63.4304 9.63192 61.8645 10.2678 60.6212 10.1539C60.5927 10.1539 60.5358 10.1539 60.5073 10.1539C59.7575 10.2393 59.4064 9.98308 59.4348 9.16687C59.4918 8.15137 59.4064 7.11687 59.4633 6.10137C59.4918 5.40854 59.2355 5.19974 58.5617 5.23771C57.4892 5.26618 56.4168 5.20924 55.3538 5.26618C54.7464 5.29465 54.5186 5.06687 54.5471 4.45947C54.5756 3.38701 54.5471 2.31456 54.5756 1.2516C54.604 0.615716 54.3763 0.349976 53.7119 0.349976C49.3462 0.378448 44.9709 0.378448 40.6337 0.349976C39.9124 0.349976 39.77 0.634698 39.7985 1.28007C39.827 2.35252 39.7985 3.42498 39.827 4.48794C39.8554 5.09535 39.6561 5.32312 39.0202 5.29465C38.0902 5.26618 37.1411 5.32312 36.1825 5.26618C35.2239 5.20924 34.7684 5.43701 34.8538 6.50947C34.9392 7.43956 34.8538 8.38863 34.8823 9.3472C34.9108 9.98308 34.7114 10.2773 34.0186 10.2488C33.0031 10.1919 31.9686 10.1919 30.9531 10.2488C30.2318 10.2773 29.9376 10.0495 29.9945 9.31873C30.0515 8.30322 29.9945 7.26873 30.023 6.25322C30.0515 5.53192 29.7952 5.26618 29.0645 5.29465C27.992 5.3516 26.9195 5.26618 25.8566 5.29465C25.2492 5.32312 25.0214 5.09535 25.0214 4.48794C25.0499 3.38701 25.0214 2.25761 25.0499 1.15669C25.0499 0.634698 24.879 0.378448 24.3286 0.406921C19.9344 0.406921 15.5022 0.435393 11.108 0.406921C10.5006 0.406921 10.2728 0.606226 10.3013 1.21363C10.3297 2.22914 10.2728 3.26363 10.3297 4.27914C10.3582 5.02891 10.1589 5.38007 9.3427 5.32312C8.44108 5.26618 7.54895 5.38007 6.64733 5.29465C5.71723 5.20924 5.31862 5.43701 5.40404 6.45252C5.48946 7.35414 5.37557 8.24627 5.43251 9.14789C5.48946 9.95461 5.29015 10.3342 4.38853 10.2773C3.48691 10.1919 2.59478 10.3058 1.69316 10.2488C0.763067 10.1919 0.4214 10.4766 0.449873 11.4636C0.506817 14.3298 0.478344 17.196 0.478344 20.0622C0.478344 22.378 0.478344 24.6937 0.478344 26.981C0.478344 29.9326 0.478345 29.9326 3.48691 29.9326C5.42302 29.9326 5.42302 29.9326 5.39455 31.8972C5.39455 34.8488 5.39455 34.8488 8.26075 34.8488C8.61191 34.8488 8.95358 34.8773 9.27626 34.8488C10.083 34.7634 10.2918 35.1051 10.2918 35.8928C10.2918 37.1646 9.71284 38.9298 10.548 39.5372C11.4117 40.1731 13.0915 39.7935 14.4297 39.7081C15.0656 39.6511 15.1795 39.8504 15.1795 40.344C15.1795 41.2076 15.1795 42.0523 15.1795 42.916C15.1795 44.7097 15.1795 44.7097 16.9163 44.7097C20.1242 44.7097 20.1242 44.7097 20.0957 47.9555C20.0672 49.6639 19.811 49.6639 21.6902 49.6639C24.9929 49.6639 25.0499 49.6923 24.9929 52.9951C24.9645 54.2669 25.2776 54.7319 26.6158 54.618C27.7168 54.5041 29.1878 54.1245 29.8237 54.8173C30.3742 55.3963 30.08 56.8673 29.9661 57.9113C29.8237 59.2116 30.2223 59.6766 31.5605 59.5058C32.6045 59.3634 34.0186 59.8284 34.6545 59.3065C35.4043 58.6706 34.9392 57.2185 34.8823 56.1271C34.8253 54.9122 35.1385 54.4472 36.4483 54.5611C37.4922 54.675 38.8779 54.9407 39.5422 54.4187C40.3489 53.7828 39.8649 52.3308 39.7985 51.2678C39.7415 49.996 40.1212 49.5595 41.4214 49.6449C42.4654 49.7303 43.8226 50.1384 44.5154 49.474C45.2082 48.8097 44.7147 47.4525 44.7432 46.4085C44.8001 44.7287 44.7716 44.7287 46.5084 44.7571C47.0304 44.7571 47.5524 44.7002 48.0459 44.7856C49.2892 44.9565 49.7543 44.5578 49.6973 43.1912C49.555 39.8315 49.6404 39.7745 53.057 39.8599C54.3003 39.8884 54.7939 39.6322 54.6515 38.2655C54.5376 37.2215 54.158 35.8643 54.8223 35.1715C55.4867 34.4502 56.8439 35.0291 57.8878 34.9437C58.0017 34.9437 58.1441 34.9153 58.2675 34.9437C59.3399 35.143 59.5392 34.621 59.5107 33.672C59.4823 32.5141 59.0172 31.0715 59.6816 30.3122C60.4314 29.5055 61.9404 30.056 63.0983 30.056C64.1422 30.056 64.4839 29.7997 64.4554 28.7273C64.3985 23.8396 64.4554 18.9708 64.427 14.0831C64.408 12.7259 64.9015 11.1884 64.2087 10.4386ZM20.0767 14.2254C20.1052 14.8898 19.8205 15.1271 19.1751 15.0891C18.245 15.0606 17.2959 15.1176 16.3374 15.0606C15.4073 15.0037 15.0371 15.2884 15.0941 16.2754C15.1795 17.3479 15.1226 18.4203 15.1226 19.4833C15.1226 20.4988 15.1226 21.5333 15.1226 22.5488C15.1226 24.6937 15.0941 26.8291 15.1226 28.974C15.1226 29.6384 14.9517 29.9041 14.2589 29.8377C13.1864 29.7808 12.114 29.7808 11.051 29.8377C10.3297 29.8662 10.2158 29.5815 10.2158 28.9361C10.2443 24.6273 10.2443 20.2805 10.2158 15.9717C10.2158 15.222 10.4436 14.9562 11.1744 15.0132C11.9811 15.0701 12.7973 15.0132 13.604 15.1555C14.705 15.3548 15.1131 14.8708 15.1415 13.9122C15.17 12.9252 15.17 11.9477 15.1415 10.9606C15.1131 10.3247 15.3408 10.097 15.9483 10.1539C16.0337 10.1539 16.1191 10.1539 16.2045 10.1539C21.1777 10.3247 19.8964 9.1384 20.0767 14.2254Z" fill="#DC1419"/>
</svg>
