<svg width="170" height="164" viewBox="0 0 170 164" fill="none" stroke="#0F172A" stroke-width="2" stroke-linecap="round" stroke-linejoin="round" xmlns="http://www.w3.org/2000/svg">
<path d="M67.847 15.0883C68.5201 17.895 68.9689 20.7614 69.1826 23.6255C69.2016 23.9848 69.2412 24.3406 69.2359 24.6828C69.2436 24.8521 69.2514 25.0214 69.2591 25.1907C69.281 25.4429 69.2537 24.7864 69.2555 25.17C69.2525 25.2771 69.2738 25.4014 69.2709 25.5086C69.288 26.2308 69.2846 26.9566 69.281 27.6824C69.2532 29.1375 69.1425 30.6068 68.9626 32.0454C68.8655 32.7232 68.7684 33.401 68.6506 34.0824C68.5796 34.4145 68.5292 34.7431 68.4375 35.0788C68.4274 35.1445 68.3623 35.2623 68.3765 35.3452C68.341 35.138 68.4547 35.0545 68.3967 35.2138C68.3422 35.3937 68.3084 35.5701 68.254 35.7501C67.945 36.9335 67.5253 38.0932 67.0327 39.2014C66.9268 39.4542 66.8001 39.7105 66.6735 39.9669C66.6119 40.1054 66.5295 40.2475 66.468 40.386C66.4336 40.4346 66.4029 40.5038 66.3892 40.5488C66.5325 40.1403 66.4544 40.431 66.4064 40.5246C66.1152 41.065 65.7825 41.6127 65.4463 42.1395C65.1065 42.6457 64.7631 43.1311 64.3783 43.6237C64.2031 43.8457 64.0072 44.0712 63.8112 44.2968C63.7219 44.3974 63.6325 44.4981 63.5431 44.5987C63.3986 44.7514 63.8112 44.2968 63.5981 44.5466C63.5259 44.623 63.4708 44.6751 63.3986 44.7514C62.9274 45.2375 62.4318 45.7064 61.9085 46.1373C61.3852 46.5683 60.827 46.9199 60.2795 47.3337C60.2966 47.3095 60.6068 47.1284 60.393 47.2503C60.3173 47.306 60.238 47.3409 60.1622 47.3965C60.0071 47.4871 59.852 47.5777 59.6762 47.6718C59.3832 47.8287 59.0901 47.9856 58.7728 48.1253C58.1625 48.4219 57.5207 48.6599 56.8719 48.8564C56.5268 48.9583 56.1763 49.4023 56.0603 49.7208C55.9478 50.06 55.9425 50.4021 56.0444 50.7472C56.2758 51.4754 57.0212 51.9662 57.8085 51.8312C59.3175 51.5511 60.83 51.2918 62.3603 51.1361C62.7161 51.0964 63.0547 51.081 63.4141 51.0621C63.4348 51.0585 63.8184 51.0567 63.5627 51.0579C63.2862 51.0627 63.6698 51.0609 63.7112 51.0538C63.9013 51.0426 64.0949 51.052 64.2885 51.0615C65.0592 51.0787 65.8164 51.1408 66.5599 51.2479C66.6914 51.2681 66.847 51.3053 66.9785 51.3255C67.0442 51.3355 67.1342 51.3628 67.1999 51.3728C67.3313 51.393 67.4769 51.496 67.1099 51.3456C67.387 51.4687 67.712 51.4983 68.0062 51.5972C68.5704 51.7777 69.1174 51.9825 69.6301 52.2359C69.7686 52.2975 69.9071 52.3591 70.0492 52.4413C70.0977 52.4757 70.167 52.5065 70.212 52.5201C70.4441 52.6296 70.1185 52.4721 70.0942 52.4549C70.3369 52.6266 70.6382 52.7669 70.8981 52.9143C71.425 53.2506 71.9311 53.5904 72.4236 53.9752C72.6456 54.1504 72.8677 54.3256 73.0689 54.5044C73.1696 54.5938 73.2703 54.6832 73.3952 54.7897C73.5479 54.9342 73.114 54.518 73.3431 54.7347C73.4194 54.8069 73.4715 54.862 73.5479 54.9342C73.9818 55.3503 74.3779 55.7943 74.7739 56.2383C75.1735 56.703 75.556 57.192 75.9177 57.6845C76.0882 57.9326 76.2587 58.1806 76.4292 58.4287C76.4606 58.4873 76.4919 58.5459 76.5405 58.5802C76.3072 58.215 76.4499 58.4251 76.5091 58.5216C76.5996 58.6767 76.6867 58.8111 76.7773 58.9662C77.467 60.1277 78.0359 61.3312 78.5255 62.5696C78.6723 62.9284 78.7949 63.27 78.921 63.6322C78.9666 63.7737 79.0157 63.9359 79.082 64.0739C79.124 64.1946 79.1625 64.2947 79.1838 64.419C79.1732 64.3568 79.1418 64.2982 79.1311 64.2361C79.1453 64.319 79.1767 64.3776 79.1909 64.4604C79.4017 65.1921 79.6089 65.9031 79.7782 66.6419C80.5923 70.0216 80.9748 73.4966 81.3294 76.9337C81.4194 77.7075 82.1961 78.2568 82.9391 78.2361C83.7235 78.2082 84.3462 77.6109 84.4462 76.8259C85.1914 71.3447 84.4573 65.8184 84.774 60.3253C84.8409 59.0981 84.9491 57.8638 85.1646 56.6324C85.2048 56.3696 85.2659 56.1032 85.3097 55.861C85.3298 55.7296 85.3913 55.5911 85.4079 55.439C85.4115 55.4597 85.3232 55.8161 85.3877 55.5704C85.3978 55.5047 85.4251 55.4147 85.4352 55.349C85.5778 54.8126 85.724 54.297 85.891 53.7778C86.2248 52.7395 86.6487 51.7283 87.1453 50.7687C87.1797 50.7202 87.2104 50.6509 87.2241 50.6059C87.0701 50.9522 87.111 50.8172 87.159 50.7237C87.2241 50.6059 87.2892 50.4881 87.3543 50.3703C87.4846 50.1346 87.6355 49.8955 87.7864 49.6563C88.0712 49.2023 88.3802 48.7654 88.6963 48.3699C88.8887 48.1236 89.0639 47.9016 89.2806 47.6725C89.3149 47.624 89.3529 47.5962 89.4079 47.5441C89.0847 47.8981 89.3185 47.6447 89.37 47.5719C89.4801 47.4677 89.5695 47.3671 89.6796 47.2629C90.0822 46.8739 90.509 46.5021 90.9636 46.1683C91.0773 46.0848 91.2117 45.9978 91.3253 45.9143C91.3839 45.8829 91.4219 45.8551 91.4805 45.8237C91.7492 45.6496 91.191 46.0013 91.4425 45.8515C91.6941 45.7017 91.9457 45.552 92.2216 45.4194C92.4975 45.2868 92.7526 45.1577 93.0321 45.0458C93.1528 45.0037 93.2907 44.9375 93.4115 44.8954C93.5323 44.8534 94.0982 44.671 93.5701 44.8256C93.9739 44.6924 94.3569 44.5627 94.5902 44.1815C94.7755 43.8937 94.8708 43.5788 94.8726 43.2159C94.8554 42.4937 94.2538 41.7223 93.4623 41.7087C92.8401 41.6874 92.2145 41.6454 91.5816 41.5619C91.2981 41.5252 91.0316 41.4643 90.748 41.4276C90.5923 41.3903 90.4367 41.353 90.2846 41.3364C90.7931 41.4412 90.2152 41.3056 90.0838 41.2855C88.8969 40.9558 87.7337 40.5153 86.6355 39.9571C86.587 39.9228 86.5177 39.892 86.4727 39.8784C86.237 39.7481 86.5662 39.9263 86.5905 39.9435C86.4691 39.8577 86.3099 39.7996 86.1678 39.7173C85.8837 39.5528 85.6237 39.4054 85.3603 39.2373C84.8334 38.901 84.303 38.5441 83.8069 38.1386C83.3143 37.7538 82.8425 37.3654 82.3672 36.9563C82.3151 36.9013 82.2629 36.8463 82.1901 36.7948C82.2144 36.8119 82.4678 37.0457 82.2665 36.867C82.1416 36.7604 82.0374 36.6503 81.9124 36.5438C81.6833 36.3271 81.4508 36.0897 81.2424 35.8695C80.3846 34.9714 79.5989 33.997 78.8719 32.9913C78.7014 32.7432 78.5345 32.5159 78.364 32.2678C78.3119 32.2128 78.277 32.1334 78.2456 32.0748C78.103 31.8647 78.3012 32.1506 78.3048 32.1713C78.2107 31.9955 78.0994 31.844 78.0088 31.6889C77.685 31.1685 77.3783 30.6239 77.0716 30.0792C75.7645 27.6799 74.671 25.1586 73.6984 22.5953C73.1561 21.174 72.631 19.7283 72.1473 18.2756C71.9229 17.5888 71.7021 16.9229 71.4777 16.2362C71.3759 15.891 71.2569 15.5702 71.155 15.225C71.113 15.1043 70.9306 14.5383 71.1023 15.0421C71.0496 14.8592 71.0005 14.697 70.9479 14.5141C70.8111 14.0896 70.6678 13.7516 70.3037 13.4941C69.9882 13.2709 69.5176 13.1383 69.1275 13.2265C68.7373 13.3147 68.3235 13.5136 68.1074 13.8706C67.8949 14.2483 67.7173 14.7053 67.847 15.0883C69.5064 20.4133 71.2802 25.7826 73.8572 30.737C76.3294 35.4534 79.7778 39.7678 84.473 42.3968C87.1376 43.8808 90.0798 44.8694 93.1386 44.9209C93.1096 43.8807 93.0599 42.8442 93.0308 41.804C91.7746 42.19 90.6504 42.724 89.5375 43.4481C88.5589 44.0851 87.6916 44.8736 86.9043 45.7551C85.3604 47.4488 84.1984 49.5037 83.3684 51.6295C82.4905 53.8489 81.9797 56.2187 81.7695 58.6008C81.5061 61.4187 81.5678 64.2662 81.6258 67.093C81.7028 70.2791 81.7591 73.4688 81.3211 76.6366C82.3612 76.6075 83.3978 76.5578 84.438 76.5288C83.7802 70.3282 83.0312 63.8447 79.9468 58.2948C77.3817 53.6584 73.2121 49.6169 67.9463 48.3868C64.4139 47.5634 60.8016 48.14 57.2863 48.7854C57.6054 49.7758 57.9038 50.7697 58.2229 51.7601C63.3199 50.1398 67.1956 45.9987 69.531 41.3326C72.1197 36.1538 72.5998 30.1208 72.3451 24.4057C72.2018 21.0816 71.7234 17.7937 70.9378 14.5798C70.7371 13.7823 69.9805 13.1016 69.1174 13.2922C68.3336 13.4479 67.6356 14.2288 67.847 15.0883Z" fill="#231F20"/>
<path d="M17.5297 67.0762C18.1484 68.5698 18.7292 70.0912 19.2685 71.6197C19.545 72.3615 19.8008 73.1068 20.0358 73.8557C20.1655 74.2387 20.2915 74.601 20.4005 74.9876C20.4496 75.1498 20.5022 75.3327 20.5514 75.4949C20.6426 75.7779 20.5549 75.5156 20.5478 75.4742C20.5899 75.595 20.6319 75.7157 20.6568 75.8608C21.6076 78.9184 22.3926 82.0045 23.0569 85.1325C23.3499 86.4687 23.5773 87.7947 23.7254 89.1557C23.7579 89.4701 23.7904 89.7844 23.8023 90.1023C23.81 90.2716 23.8177 90.4409 23.8254 90.6102C23.8331 90.7795 23.9166 90.8932 23.8183 90.5688C23.8568 90.6688 23.8159 90.8038 23.8336 90.9074C23.8402 91.5675 23.8224 92.2104 23.7425 92.864C23.7129 93.189 23.6591 93.4968 23.6087 93.8254C23.5886 93.9568 23.5307 94.116 23.5313 94.2439C23.5609 93.9189 23.5857 94.0639 23.5584 94.1539C23.5348 94.2646 23.5075 94.3546 23.4838 94.4653C23.2968 95.1159 23.0612 95.7322 22.7599 96.3384C22.6776 96.4805 22.6196 96.6397 22.5373 96.7818C22.5509 96.7368 22.6984 96.4769 22.5681 96.7125C22.5373 96.7818 22.5065 96.851 22.4515 96.9031C22.2904 97.208 22.1087 97.5165 21.9269 97.8249C21.5771 98.3968 21.1858 98.9757 20.791 99.534C20.3618 100.141 19.9047 100.71 19.427 101.282C19.1795 101.581 18.9321 101.879 18.6604 102.16C18.6089 102.233 18.5367 102.309 18.4816 102.361C18.4438 102.389 18.2306 102.639 18.3922 102.462C18.5746 102.281 18.32 102.538 18.3029 102.563C18.2306 102.639 18.1377 102.719 18.0691 102.816C16.9822 103.941 15.8432 105.011 14.6764 106.042C14.1774 106.491 13.9322 107.3 14.2738 107.924C14.5876 108.51 15.2844 108.967 15.961 108.808C17.2522 108.502 18.5468 108.216 19.8836 108.05C20.7609 107.943 21.6453 107.876 22.5126 107.834C22.9963 107.794 23.4592 107.757 23.9428 107.717C24.0879 107.692 24.2365 107.688 24.3851 107.684C24.4265 107.677 24.4472 107.673 24.4922 107.687C24.6615 107.679 24.6201 107.686 24.3643 107.687C24.4093 107.701 24.513 107.683 24.5544 107.676C24.8966 107.682 25.2387 107.687 25.588 107.734C25.8923 107.767 26.2002 107.821 26.4873 107.878C26.5737 107.885 26.643 107.915 26.7294 107.922C26.9508 107.969 26.328 107.82 26.6636 107.912C26.8436 107.966 26.9994 108.004 27.1793 108.058C27.8092 108.249 28.4048 108.488 28.9867 108.772C29.056 108.803 29.1287 108.854 29.198 108.885C29.4543 109.012 29.1288 108.854 29.1045 108.837C29.1844 108.93 29.4336 109.015 29.5307 109.084C29.8391 109.266 30.1269 109.451 30.4146 109.636C30.9693 110.01 31.5311 110.426 32.0308 110.852C32.2806 111.065 32.5304 111.278 32.7595 111.495C32.5026 111.24 33.0372 111.746 32.7595 111.495C32.8116 111.55 32.8602 111.584 32.9123 111.639C33.065 111.784 33.2177 111.928 33.3497 112.076C33.8393 112.568 34.3081 113.064 34.7598 113.584C35.7431 114.716 36.675 115.921 37.5447 117.137C38.0212 117.802 38.5013 118.488 38.9572 119.156C39.0685 119.307 39.1591 119.463 39.2704 119.614C39.326 119.69 39.3852 119.786 39.4409 119.862C39.5907 120.114 39.4444 119.883 39.413 119.824C39.6706 120.207 39.8866 120.596 40.1234 120.982C42.0528 124.149 43.6891 127.473 45.0289 130.934C45.3053 131.675 46.2295 131.965 46.9197 131.761C47.7308 131.515 48.0558 130.799 48.0037 129.997C47.6596 123.636 45.0227 117.711 44.3229 111.389C44.2583 110.889 44.2353 110.381 44.195 109.897C44.1944 109.769 44.1939 109.641 44.1725 109.517C44.1577 109.306 44.185 109.963 44.1731 109.645C44.1625 109.583 44.1761 109.538 44.1654 109.476C44.1607 109.199 44.1559 108.923 44.1511 108.646C44.1564 107.558 44.2239 106.458 44.3399 105.393C44.4133 104.826 44.4867 104.259 44.5808 103.688C44.6211 103.425 44.665 103.183 44.7295 102.938C44.7496 102.806 44.7904 102.671 44.8105 102.54C44.875 102.294 44.7869 102.65 44.7697 102.675C44.7969 102.585 44.8035 102.498 44.8307 102.408C45.0988 101.36 45.4327 100.322 45.8808 99.3276C45.9868 99.0748 46.1135 98.8185 46.2402 98.5621C46.2538 98.5171 46.4011 98.2573 46.2537 98.5172C46.1271 98.7735 46.271 98.4929 46.3053 98.4443C46.3704 98.3265 46.4355 98.2087 46.5213 98.0874C46.8025 97.6126 47.1287 97.1514 47.4827 96.7281C47.5686 96.6068 47.6787 96.5026 47.7681 96.4019C47.8918 96.2527 47.5135 96.6589 47.6615 96.5268C47.7166 96.4747 47.7716 96.4227 47.8231 96.3498C48.0262 96.1657 48.2085 95.9852 48.4323 95.7975C48.6389 95.6341 48.8455 95.4707 49.0556 95.328C49.0935 95.3002 49.3244 95.154 49.0728 95.3038C48.842 95.45 49.035 95.3316 49.0936 95.3002C49.228 95.2132 49.3658 95.1469 49.5037 95.0806C50.0898 94.7668 50.5462 94.07 50.3876 93.3934C50.2253 92.696 49.715 92.2076 48.9922 92.0969C46.1873 91.6607 43.347 91.7637 40.5285 91.3724C40.2 91.3221 39.8714 91.2718 39.5393 91.2008C39.4736 91.1907 39.4078 91.1807 39.3421 91.1706C39.2971 91.157 39.0029 91.0581 39.2521 91.1434C39.5014 91.2286 39.2072 91.1298 39.1622 91.1162C39.0722 91.0889 38.9615 91.0652 38.8715 91.038C38.2245 90.8717 37.6082 90.6361 37.0055 90.3555C36.912 90.3075 36.8184 90.2596 36.7284 90.2324C36.5206 90.14 36.7806 90.2874 36.8221 90.2803C36.7634 90.3117 36.4443 90.0678 36.3715 90.0163C36.0595 89.8138 35.7475 89.6114 35.4527 89.3846C35.2064 89.1922 34.9566 88.9791 34.7068 88.766C34.5819 88.6595 34.457 88.5529 34.3321 88.4463C34.6547 88.711 34.457 88.5529 34.3806 88.4807C34.3043 88.4084 34.2244 88.3155 34.1273 88.2468C33.2073 87.3595 32.4009 86.3886 31.6497 85.3657C31.4549 85.1004 31.2844 84.8524 31.1104 84.5836C31.0269 84.47 30.9435 84.3563 30.8772 84.2184C30.8251 84.1633 30.7901 84.084 30.738 84.0289C30.564 83.7602 30.9121 84.2977 30.7416 84.0496C30.3899 83.4914 30.0554 82.9089 29.7244 82.3471C28.3516 79.9377 27.1717 77.4099 25.916 74.9378C24.1933 71.6072 22.2947 68.3708 20.0345 65.3884C19.5372 64.7272 18.4136 64.6425 17.8045 65.1948C17.1403 65.7993 17.0822 66.705 17.6109 67.4249C18.1603 68.1412 18.6925 68.8818 19.204 69.6259C19.4337 69.9704 19.6841 70.3114 19.8931 70.6595C19.8653 70.6216 19.7155 70.37 19.8652 70.6216C19.9209 70.6974 19.9801 70.7939 20.0357 70.8697C20.1542 71.0626 20.2725 71.2557 20.3873 71.4279C21.2162 72.7788 21.9864 74.1611 22.7187 75.5713C24.0472 78.0949 25.2585 80.6813 26.6248 83.1771C27.9284 85.5557 29.415 87.8816 31.3076 89.8393C32.3182 90.8818 33.4358 91.9273 34.711 92.6471C36.0868 93.4564 37.5372 93.9542 39.1042 94.2614C42.2418 94.8966 45.4895 94.681 48.6437 95.1641C48.4731 94.1695 48.3026 93.175 48.1286 92.1597C43.8603 94.3845 42.0412 99.3247 41.3362 103.797C40.9632 106.1 40.8982 108.457 41.061 110.776C41.2754 113.768 41.9941 116.716 42.7471 119.615C43.6588 123.192 44.6327 126.757 44.84 130.454C45.8304 130.135 46.8244 129.837 47.8148 129.517C46.5941 126.378 45.111 123.326 43.4179 120.417C41.7004 117.491 39.7829 114.642 37.6073 112.029C35.7585 109.829 33.6303 107.741 31.1249 106.315C29.7562 105.547 28.378 104.973 26.8317 104.662C25.4583 104.365 24.0867 104.45 22.6979 104.561C21.6891 104.648 20.694 104.691 19.6888 104.799C18.2035 104.969 16.7637 105.279 15.3068 105.614C15.7431 106.542 16.1551 107.453 16.5915 108.38C18.7771 106.449 20.8757 104.382 22.6723 102.048C24.4483 99.7175 26.0295 97.1215 26.6209 94.2261C27.1886 91.4413 26.8534 88.4914 26.3117 85.7049C25.706 82.5455 24.9139 79.418 24.0045 76.3533C22.9371 72.7397 21.6832 69.1582 20.2535 65.6708C19.932 64.9154 18.8866 64.5401 18.1626 64.9201C17.4978 65.3967 17.1769 66.2622 17.5297 67.0762Z" fill="#231F20"/>
<path d="M106.195 94.8312C106.681 95.921 107.104 97.0215 107.472 98.1741C107.427 98.0326 107.385 97.9119 107.339 97.7704C108.044 100.017 108.491 102.372 108.574 104.725C108.57 104.577 108.569 104.449 108.565 104.3C108.636 106.207 108.472 108.113 108.042 109.957C108.083 109.822 108.103 109.69 108.144 109.555C107.934 110.444 107.679 111.32 107.334 112.168C107.173 112.601 106.971 113.041 106.766 113.46C106.67 113.647 106.574 113.834 106.478 114.021C106.735 113.529 106.526 113.928 106.461 114.045C106.396 114.163 106.331 114.281 106.262 114.378C105.803 115.182 105.25 115.938 104.669 116.656C104.528 116.83 104.367 117.007 104.226 117.18C104.136 117.281 103.83 117.611 104.208 117.204C104.116 117.284 104.047 117.381 103.957 117.482C103.614 117.84 103.245 118.18 102.877 118.52C102.171 119.132 101.455 119.681 100.666 120.179C100.78 120.096 100.897 120.033 101.011 119.95C100.452 120.301 99.8941 120.653 99.3394 121.025C98.957 121.283 98.5917 121.516 98.3342 121.88C97.7434 122.664 98.0631 123.782 98.8842 124.217C99.3068 124.443 99.8184 124.441 100.275 124.491C101.06 124.591 101.852 124.732 102.63 124.919C102.495 124.878 102.364 124.858 102.229 124.817C104.343 125.329 106.43 126.059 108.35 127.052C108.398 127.086 108.443 127.1 108.492 127.134C108.093 126.925 108.26 127.025 108.35 127.052C108.467 127.117 108.561 127.165 108.679 127.23C108.89 127.343 109.105 127.477 109.296 127.594C109.656 127.831 110.017 128.067 110.364 128.349C110.533 128.469 110.686 128.614 110.86 128.755C110.936 128.827 111.012 128.899 111.089 128.971C111.165 129.044 111.294 129.171 110.94 128.848C110.992 128.903 111.04 128.937 111.092 128.992C111.398 129.281 111.707 129.591 111.978 129.928C112.662 130.685 113.254 131.522 113.828 132.384C113.745 132.27 113.682 132.153 113.598 132.039C115.701 135.347 117.042 139.063 118.355 142.741C118.695 143.728 119.055 144.711 119.416 145.694C119.539 146.036 119.962 146.39 120.28 146.506C120.62 146.619 120.962 146.624 121.307 146.522C122.056 146.287 122.505 145.549 122.391 144.758C122.158 143.028 121.925 141.297 121.689 139.546C121.467 137.878 121.179 136.199 121.123 134.503C121.127 134.651 121.128 134.779 121.132 134.928C121.094 133.463 121.16 131.98 121.295 130.528C121.364 129.812 121.454 129.093 121.544 128.373C121.635 127.782 121.701 127.173 121.833 126.575C121.792 126.71 121.772 126.841 121.731 126.976C121.907 126.263 122.174 125.578 122.51 124.923C122.557 124.83 122.605 124.736 122.65 124.622C122.763 124.41 122.437 125 122.615 124.67C122.728 124.459 122.845 124.268 122.958 124.057C123.171 123.679 123.408 123.319 123.644 122.958C124.156 122.209 124.712 121.474 125.293 120.756C125.434 120.583 125.578 120.43 125.719 120.256C125.791 120.18 125.864 120.104 125.932 120.007C125.967 119.958 126.001 119.909 126.06 119.878C126.004 119.93 125.791 120.18 125.95 119.982C126.238 119.677 126.548 119.368 126.837 119.062C127.442 118.489 128.072 117.933 128.786 117.491C128.672 117.575 128.555 117.637 128.441 117.721C128.5 117.689 128.558 117.658 128.613 117.606C128.962 117.397 129.278 117.129 129.425 116.742C129.538 116.402 129.543 116.06 129.441 115.715C129.206 114.966 128.464 114.496 127.677 114.631C127.325 114.692 126.969 114.731 126.63 114.747C126.779 114.743 126.907 114.742 127.055 114.738C126.354 114.751 125.638 114.682 124.949 114.523C125.084 114.564 125.216 114.584 125.351 114.625C124.929 114.527 124.524 114.404 124.133 114.236C123.928 114.165 123.741 114.069 123.537 113.997C123.444 113.949 123.329 113.905 123.236 113.857C123.191 113.843 123.142 113.809 123.097 113.795C123.073 113.778 123.049 113.761 123.028 113.765C122.862 113.665 123.263 113.895 123.239 113.878C122.435 113.418 121.666 112.91 120.927 112.333C120.75 112.172 120.556 112.034 120.379 111.873C120.302 111.8 120.202 111.711 120.125 111.639C119.924 111.46 120.327 111.818 120.25 111.745C120.198 111.69 120.15 111.656 120.097 111.601C119.719 111.261 119.379 110.892 119.018 110.528C118.288 109.757 117.614 108.934 116.978 108.083C116.234 107.102 115.524 106.072 114.855 105.035C114.939 105.148 115.002 105.266 115.085 105.379C113.132 102.323 111.465 99.068 109.977 95.7398C109.631 94.9673 109.31 94.2119 108.985 93.4358C108.663 92.6804 107.618 92.3051 106.894 92.6852C106.163 93.1517 105.843 94.0172 106.195 94.8312C106.954 96.6421 107.754 98.4459 108.633 100.215C109.648 102.28 110.767 104.328 111.979 106.296C113.271 108.356 114.662 110.379 116.295 112.189C117.747 113.817 119.42 115.364 121.329 116.423C122.248 116.927 123.2 117.382 124.224 117.633C125.359 117.908 126.445 118.02 127.623 117.925C127.855 117.907 128.082 117.868 128.29 117.832C127.97 116.842 127.672 115.848 127.353 114.857C125.768 115.812 124.474 117.1 123.261 118.481C122.047 119.862 120.941 121.374 120.068 122.996C119.629 123.796 119.232 124.589 118.956 125.468C118.643 126.503 118.509 127.592 118.373 128.661C118.05 131.255 117.878 133.865 118.132 136.466C118.277 137.934 118.509 139.409 118.716 140.866C118.931 142.365 119.121 143.847 119.335 145.346C120.325 145.027 121.319 144.728 122.31 144.409C120.857 140.414 119.58 136.324 117.572 132.574C116.543 130.681 115.349 128.817 113.808 127.289C113.033 126.505 112.187 125.797 111.272 125.186C110.218 124.514 109.075 123.942 107.925 123.456C106.658 122.906 105.342 122.449 104.003 122.103C103.242 121.892 102.467 121.726 101.675 121.585C101.038 121.48 100.409 121.418 99.7762 121.334C99.9112 121.375 100.043 121.395 100.178 121.436C100.396 121.591 100.59 121.728 100.809 121.882C100.892 121.996 100.955 122.113 101.038 122.227C101.084 122.368 101.126 122.489 101.172 122.631C101.176 122.779 101.176 122.907 101.181 123.056C101.14 123.191 101.119 123.322 101.079 123.457C100.986 123.665 100.86 123.921 100.687 124.036C100.725 124.008 100.742 123.984 100.78 123.956C100.873 123.876 100.97 123.817 101.063 123.737C101.328 123.542 101.617 123.365 101.907 123.187C101.793 123.271 101.676 123.333 101.562 123.417C102.351 122.919 103.161 122.418 103.915 121.84C104.783 121.18 105.575 120.447 106.314 119.659C107.879 117.962 109.152 116.058 110.048 113.942C111.788 109.912 112.071 105.341 111.357 101.049C110.916 98.4795 110.12 95.95 109.072 93.5702C108.73 92.8183 107.722 92.4152 106.981 92.8196C106.184 93.1481 105.822 94.0207 106.195 94.8312Z" fill="#231F20"/>
<path d="M117.76 36.2632C118.058 37.0015 118.334 37.7432 118.59 38.4885C118.716 38.8508 118.846 39.2338 118.975 39.6169C119.017 39.7376 119.22 40.3 119.059 39.8584C119.14 40.0792 119.2 40.3036 119.256 40.5072C119.712 42.0499 120.131 43.6205 120.487 45.2017C121.204 48.3849 121.737 51.6207 122.056 54.8506C122.129 55.6486 122.202 56.4466 122.278 57.2653C122.297 57.6247 122.34 58.0012 122.359 58.3605C122.367 58.5298 122.375 58.6991 122.386 58.8892C122.4 58.972 122.394 59.0585 122.404 59.1207C122.405 59.2485 122.415 59.1828 122.393 58.9306C122.404 58.9928 122.394 59.0585 122.404 59.1207C122.445 60.4787 122.379 61.8337 122.247 63.1788C122.171 63.853 122.073 64.5309 121.952 65.1916C121.881 65.5237 121.831 65.8522 121.76 66.1843C121.753 66.2708 121.722 66.34 121.716 66.4265C121.773 66.0115 121.75 66.25 121.726 66.3607C121.672 66.5407 121.641 66.7378 121.587 66.9178C121.237 68.2362 120.794 69.5066 120.219 70.7569C120.065 71.1032 119.89 71.4531 119.712 71.7822C119.664 71.8758 119.558 72.0007 119.76 71.6887C119.712 71.7822 119.643 71.8794 119.595 71.9729C119.496 72.1392 119.417 72.302 119.318 72.4684C118.937 73.1095 118.529 73.7128 118.079 74.3231C117.852 74.6179 117.625 74.9127 117.378 75.2111C117.254 75.3603 117.106 75.4923 117.003 75.638C117.226 75.3224 117.148 75.4852 117.058 75.5858C116.986 75.6622 116.914 75.7386 116.821 75.8185C116.295 76.3566 115.723 76.8812 115.121 77.3471C114.594 77.7573 114.401 78.6222 114.718 79.229C114.844 79.4635 115.011 79.6908 115.229 79.8453C115.5 80.0548 116.06 80.2147 116.405 80.1128C117.765 79.7091 119.139 79.3882 120.535 79.1916C121.222 79.0951 121.892 79.0229 122.586 78.9678C122.756 78.9601 122.946 78.9489 123.115 78.9412C123.243 78.9406 123.879 78.9169 123.326 78.9264C123.689 78.9282 124.048 78.9092 124.411 78.911C125.797 78.908 127.2 79.0086 128.577 79.1992C129.275 79.2927 129.977 79.407 130.666 79.5662C130.822 79.6035 130.953 79.6236 131.109 79.6609C131.199 79.6882 131.285 79.6947 131.375 79.7219C130.912 79.6307 131.219 79.6846 131.33 79.7083C131.686 79.7965 132.022 79.8882 132.379 79.9764C133.745 80.3606 135.082 80.8141 136.37 81.3611C137.014 81.6345 137.637 81.9116 138.247 82.2336C138.41 82.3124 138.573 82.3911 138.735 82.4698C138.808 82.5213 138.898 82.5485 138.971 82.6001C138.597 82.4082 138.76 82.487 138.853 82.535C139.207 82.7303 139.536 82.9085 139.868 83.1074C141.054 83.8 142.212 84.5826 143.294 85.4208C143.859 85.8571 144.407 86.3177 144.959 86.799C145.063 86.9091 145.185 86.9949 145.289 87.105C144.89 86.7682 145.365 87.1773 145.445 87.2702C145.702 87.5248 145.959 87.7793 146.216 88.0339C147.303 89.1486 148.318 90.3396 149.215 91.5935C149.441 91.9173 149.667 92.2411 149.869 92.5477C150.043 92.8165 149.664 92.2204 149.841 92.5099C149.9 92.6064 149.963 92.7236 150.022 92.8201C150.113 92.9752 150.204 93.1303 150.294 93.2854C150.712 93.9816 151.092 94.7056 151.431 95.4367C151.794 96.1849 152.781 96.5916 153.522 96.1873C153.873 95.999 154.207 95.7071 154.333 95.3229C154.473 94.8937 154.43 94.5173 154.293 94.0928C154.29 94.0721 154.16 93.689 154.244 93.9306C154.328 94.1721 154.202 93.8098 154.198 93.7891C154.153 93.6476 154.107 93.5061 154.062 93.3647C153.963 93.0402 153.865 92.7158 153.788 92.3879C153.657 91.877 153.527 91.3661 153.418 90.8516C153.258 90.0471 153.137 89.2148 152.978 88.4103C152.804 87.395 152.571 86.4111 152.293 85.4136C152.079 84.6612 151.844 83.9123 151.609 83.1634C151.469 82.7183 151.328 82.2731 151.184 81.8072C151.15 81.7279 151.135 81.645 151.1 81.5656C150.971 81.1826 151.184 81.8072 151.1 81.5656C151.041 81.3413 150.964 81.1412 150.904 80.9168C150.465 79.4777 150.044 78.0143 149.746 76.5296C149.594 75.7665 149.466 75.0206 149.397 74.2433C149.357 73.8875 149.314 73.511 149.316 73.1481C149.308 73.5974 149.322 72.9338 149.308 72.8509C149.314 72.6366 149.302 72.4466 149.308 72.2323C149.322 71.5687 149.402 70.9151 149.507 70.2787C149.543 69.9952 149.601 69.708 149.658 69.4209C149.678 69.2895 149.698 69.1581 149.743 69.0438C149.749 68.9574 149.78 68.8881 149.787 68.8017C149.875 68.4453 149.753 68.9781 149.79 68.8224C150.099 67.639 150.477 66.4864 150.97 65.3782C151.11 65.0768 151.33 64.7406 151.446 64.4221C151.429 64.4464 151.268 64.7513 151.398 64.5156C151.446 64.4221 151.497 64.3493 151.545 64.2558C151.628 64.1137 151.71 63.9716 151.792 63.8295C152.142 63.2576 152.516 62.7029 152.935 62.1618C153.145 61.8913 153.375 61.6172 153.605 61.3431C153.784 61.1418 153.554 61.4159 153.533 61.4195C153.609 61.3638 153.657 61.2703 153.733 61.2146C153.86 61.0862 153.987 60.9577 154.094 60.8328C154.586 60.3432 155.109 59.9122 155.677 59.4949C156.208 59.1053 156.394 58.199 156.08 57.6129C155.735 56.9682 155.104 56.6498 154.393 56.7291C153.66 56.812 152.924 56.8742 152.185 56.9156C152.016 56.9233 151.846 56.931 151.677 56.9387C151.594 56.9529 151.504 56.9257 151.421 56.9399C151.832 56.8481 151.57 56.9358 151.442 56.9363C151.059 56.9381 150.678 56.9606 150.316 56.9588C148.864 56.9518 147.423 56.879 146.008 56.7162C145.289 56.6262 144.59 56.5327 143.885 56.3978C143.553 56.3267 143.224 56.2764 142.871 56.2089C142.826 56.1953 142.363 56.1041 142.363 56.1041C142.428 56.1142 142.498 56.145 142.563 56.155C142.498 56.145 142.428 56.1142 142.363 56.1041C142.273 56.0769 142.162 56.0532 142.072 56.026C140.667 55.6696 139.31 55.2197 137.977 54.6591C137.309 54.3685 136.64 54.0778 136.006 53.7386C135.937 53.7078 135.889 53.6735 135.819 53.6427C135.892 53.6942 136.214 53.831 135.819 53.6427C135.677 53.5605 135.514 53.4817 135.372 53.3994C135.043 53.2212 134.731 53.0188 134.419 52.8163C133.82 52.4286 133.216 52.0201 132.651 51.5838C132.061 51.1303 131.527 50.6248 130.958 50.1678C131.305 50.4496 130.882 50.0956 130.802 50.0026C130.673 49.8754 130.548 49.7688 130.42 49.6415C130.139 49.3698 129.878 49.0945 129.618 48.8193C129.097 48.2687 128.614 47.6903 128.13 47.112C127.185 45.9517 126.315 44.7357 125.48 43.4712C125.449 43.4126 125.397 43.3576 125.365 43.299C125.334 43.2404 125.282 43.1853 125.25 43.1267C125.369 43.3197 125.393 43.3369 125.306 43.2025C125.191 43.0302 125.073 42.8372 124.958 42.6649C124.749 42.3168 124.54 41.9688 124.331 41.6207C123.909 40.9038 123.484 40.1662 123.084 39.4457C122.251 37.9462 121.459 36.4396 120.668 34.933C120.287 34.209 119.339 33.7745 118.577 34.1824C117.787 34.5524 117.349 35.4806 117.76 36.2632C120.623 41.7658 123.601 47.4406 128.083 51.8124C130.364 54.0448 132.958 55.861 135.877 57.216C138.634 58.4923 141.61 59.3045 144.609 59.7502C148.022 60.2527 151.499 60.2539 154.929 59.8578C154.493 58.9301 154.081 58.0196 153.644 57.092C149.342 60.2397 146.868 65.4629 146.294 70.7015C145.946 73.8965 146.531 77.0595 147.416 80.1071C147.669 80.9595 147.918 81.7913 148.192 82.6402C148.248 82.8438 148.322 83.0232 148.378 83.2268C148.413 83.3061 148.427 83.389 148.462 83.4684C148.592 83.8514 148.378 83.2268 148.465 83.4891C148.595 83.8721 148.708 84.2794 148.837 84.6624C149.192 85.86 149.546 87.0576 149.777 88.2765C149.957 89.2054 150.096 90.1413 150.277 91.0701C150.571 92.5341 150.989 93.9768 151.448 95.4124C152.396 94.9725 153.341 94.5119 154.31 94.0685C151.749 88.7063 147.56 84.1776 142.544 81.049C137.525 77.8997 131.652 75.9846 125.73 75.784C122.426 75.668 119.075 76.0292 115.914 76.9978C116.35 77.9254 116.762 78.8359 117.199 79.7636C121.816 76.0925 124.392 70.468 125.264 64.7303C125.714 61.7526 125.627 58.7601 125.347 55.7581C125.055 52.4382 124.577 49.1503 123.891 45.8978C123.103 42.1724 122.066 38.4897 120.671 34.9537C120.37 34.1948 119.304 33.823 118.58 34.2031C117.728 34.5838 117.449 35.4422 117.76 36.2632Z" fill="#231F20"/>
</svg>
