<svg width="386" height="679" viewBox="0 0 386 679" fill="none" xmlns="http://www.w3.org/2000/svg">
<path d="M268.552 27.3182C274.542 30.9554 282.216 29.2628 285.692 23.5378C289.169 17.8128 287.132 10.2233 281.142 6.58607C275.153 2.9488 267.479 4.64116 264.002 10.3662C260.526 16.0912 262.563 23.6809 268.552 27.3182Z" fill="#B76FEF"/>
<path d="M315.959 56.1066C321.949 59.7439 329.623 58.0515 333.1 52.3265C336.576 46.6015 334.539 39.0118 328.549 35.3745C322.56 31.7373 314.886 33.4299 311.409 39.1549C307.933 44.8799 309.97 52.4693 315.959 56.1066Z" fill="#B76FEF"/>
<path d="M363.365 84.8942C369.354 88.5315 377.028 86.8389 380.505 81.1139C383.981 75.3889 381.944 67.7994 375.955 64.1621C369.965 60.5249 362.291 62.2172 358.814 67.9422C355.338 73.6672 357.375 81.2569 363.365 84.8942Z" fill="#B76FEF"/>
<path d="M246.787 110.827C252.777 114.464 260.45 112.772 263.927 107.047C267.403 101.322 265.366 93.7322 259.377 90.095C253.387 86.4577 245.713 88.1501 242.237 93.8751C238.76 99.6001 240.797 107.19 246.787 110.827Z" fill="#B76FEF"/>
<path d="M294.194 139.616C300.183 143.253 307.857 141.561 311.334 135.836C314.811 130.111 312.773 122.521 306.784 118.884C300.794 115.246 293.12 116.939 289.644 122.664C286.167 128.389 288.204 135.978 294.194 139.616Z" fill="#B76FEF"/>
<path d="M341.599 168.403C347.589 172.04 355.262 170.348 358.739 164.623C362.216 158.898 360.179 151.308 354.189 147.671C348.199 144.034 340.525 145.726 337.049 151.451C333.572 157.176 335.61 164.766 341.599 168.403Z" fill="#B76FEF"/>
<path d="M389.088 197.241C395.077 200.879 402.751 199.186 406.228 193.461C409.705 187.736 407.667 180.146 401.678 176.509C395.688 172.872 388.014 174.565 384.538 180.29C381.061 186.015 383.098 193.604 389.088 197.241Z" fill="#B76FEF"/>
<path d="M225.021 194.337C231.011 197.974 238.684 196.281 242.161 190.556C245.638 184.831 243.601 177.242 237.611 173.605C231.621 169.967 223.947 171.66 220.471 177.385C216.994 183.11 219.032 190.699 225.021 194.337Z" fill="#B76FEF"/>
<path d="M272.428 223.125C278.418 226.763 286.092 225.07 289.568 219.345C293.045 213.62 291.007 206.03 285.018 202.393C279.028 198.756 271.355 200.449 267.878 206.174C264.401 211.899 266.438 219.488 272.428 223.125Z" fill="#B76FEF"/>
<path d="M319.833 251.913C325.823 255.55 333.496 253.858 336.973 248.133C340.45 242.408 338.413 234.818 332.423 231.181C326.433 227.544 318.759 229.236 315.283 234.961C311.806 240.686 313.844 248.276 319.833 251.913Z" fill="#B76FEF"/>
<path d="M367.322 280.751C373.312 284.388 380.986 282.696 384.462 276.971C387.939 271.246 385.901 263.656 379.912 260.019C373.922 256.382 366.249 258.074 362.772 263.799C359.295 269.524 361.332 277.114 367.322 280.751Z" fill="#B76FEF"/>
<path d="M203.255 277.846C209.245 281.483 216.919 279.791 220.395 274.066C223.872 268.341 221.835 260.751 215.845 257.114C209.856 253.477 202.182 255.169 198.705 260.894C195.229 266.619 197.266 274.209 203.255 277.846Z" fill="#B76FEF"/>
<path d="M250.663 306.634C256.652 310.272 264.326 308.579 267.803 302.854C271.279 297.129 269.242 289.54 263.252 285.902C257.263 282.265 249.589 283.958 246.113 289.683C242.636 295.408 244.673 302.997 250.663 306.634Z" fill="#B76FEF"/>
<path d="M298.068 335.422C304.057 339.059 311.731 337.367 315.208 331.642C318.684 325.917 316.647 318.327 310.658 314.69C304.668 311.053 296.994 312.745 293.517 318.47C290.041 324.195 292.078 331.785 298.068 335.422Z" fill="#B76FEF"/>
<path d="M345.557 364.26C351.546 367.897 359.22 366.205 362.697 360.48C366.173 354.755 364.136 347.165 358.146 343.528C352.157 339.891 344.483 341.583 341.007 347.308C337.53 353.033 339.567 360.623 345.557 364.26Z" fill="#B76FEF"/>
<path d="M392.964 393.049C398.954 396.686 406.627 394.993 410.104 389.268C413.581 383.543 411.544 375.954 405.554 372.317C399.564 368.679 391.89 370.372 388.414 376.097C384.937 381.822 386.975 389.411 392.964 393.049Z" fill="#B76FEF"/>
<path d="M181.49 361.355C187.48 364.992 195.153 363.3 198.63 357.575C202.107 351.85 200.07 344.26 194.08 340.623C188.09 336.986 180.416 338.678 176.94 344.403C173.463 350.128 175.501 357.718 181.49 361.355Z" fill="#B76FEF"/>
<path d="M228.897 390.143C234.887 393.781 242.561 392.088 246.037 386.363C249.514 380.638 247.477 373.049 241.487 369.411C235.497 365.774 227.824 367.467 224.347 373.192C220.871 378.917 222.908 386.506 228.897 390.143Z" fill="#B76FEF"/>
<path d="M276.303 418.931C282.293 422.568 289.966 420.876 293.443 415.151C296.919 409.426 294.882 401.836 288.893 398.199C282.903 394.562 275.229 396.254 271.753 401.979C268.276 407.704 270.313 415.294 276.303 418.931Z" fill="#B76FEF"/>
<path d="M323.791 447.769C329.781 451.406 337.455 449.714 340.931 443.989C344.408 438.264 342.371 430.674 336.381 427.037C330.391 423.4 322.718 425.092 319.241 430.817C315.765 436.542 317.802 444.132 323.791 447.769Z" fill="#B76FEF"/>
<path d="M371.199 476.558C377.188 480.195 384.862 478.503 388.339 472.778C391.815 467.053 389.778 459.463 383.789 455.826C377.799 452.189 370.125 453.881 366.648 459.606C363.172 465.331 365.209 472.921 371.199 476.558Z" fill="#B76FEF"/>
<path d="M159.724 444.865C165.714 448.502 173.388 446.809 176.864 441.084C180.341 435.359 178.304 427.77 172.314 424.133C166.325 420.495 158.651 422.188 155.174 427.913C151.697 433.638 153.735 441.227 159.724 444.865Z" fill="#B76FEF"/>
<path d="M207.131 473.653C213.121 477.29 220.795 475.598 224.271 469.873C227.748 464.148 225.711 456.558 219.721 452.921C213.731 449.284 206.058 450.976 202.581 456.701C199.105 462.426 201.142 470.016 207.131 473.653Z" fill="#B76FEF"/>
<path d="M254.537 502.44C260.527 506.078 268.2 504.385 271.677 498.66C275.153 492.935 273.117 485.346 267.127 481.708C261.137 478.071 253.463 479.763 249.987 485.488C246.51 491.213 248.547 498.803 254.537 502.44Z" fill="#B76FEF"/>
<path d="M302.025 531.278C308.015 534.915 315.689 533.223 319.166 527.498C322.642 521.773 320.605 514.183 314.615 510.546C308.626 506.909 300.952 508.601 297.475 514.327C293.999 520.052 296.036 527.641 302.025 531.278Z" fill="#B76FEF"/>
<path d="M349.433 560.067C355.423 563.705 363.096 562.012 366.573 556.287C370.049 550.562 368.012 542.972 362.023 539.335C356.033 535.698 348.359 537.39 344.883 543.115C341.406 548.84 343.443 556.43 349.433 560.067Z" fill="#B76FEF"/>
<path d="M137.959 528.374C143.948 532.011 151.622 530.318 155.099 524.593C158.575 518.868 156.538 511.279 150.549 507.642C144.559 504.004 136.885 505.697 133.408 511.422C129.932 517.147 131.969 524.736 137.959 528.374Z" fill="#B76FEF"/>
<path d="M185.365 557.162C191.355 560.8 199.029 559.107 202.506 553.382C205.982 547.657 203.945 540.067 197.955 536.43C191.966 532.793 184.292 534.486 180.815 540.211C177.339 545.936 179.376 553.525 185.365 557.162Z" fill="#B76FEF"/>
<path d="M232.771 585.95C238.76 589.587 246.434 587.894 249.911 582.169C253.387 576.444 251.35 568.855 245.361 565.218C239.371 561.58 231.697 563.273 228.22 568.998C224.744 574.723 226.781 582.312 232.771 585.95Z" fill="#B76FEF"/>
<path d="M280.259 614.788C286.249 618.425 293.923 616.732 297.4 611.007C300.876 605.282 298.839 597.693 292.849 594.055C286.86 590.418 279.186 592.111 275.709 597.836C272.233 603.561 274.27 611.15 280.259 614.788Z" fill="#B76FEF"/>
<path d="M327.667 643.577C333.657 647.214 341.33 645.521 344.807 639.796C348.284 634.071 346.247 626.482 340.257 622.844C334.267 619.207 326.593 620.9 323.117 626.625C319.64 632.35 321.678 639.939 327.667 643.577Z" fill="#B76FEF"/>
<path d="M375.155 672.414C381.144 676.051 388.818 674.359 392.295 668.634C395.771 662.909 393.734 655.319 387.744 651.682C381.755 648.044 374.081 649.737 370.605 655.462C367.128 661.187 369.165 668.776 375.155 672.414Z" fill="#B76FEF"/>
</svg>
