<?xml version="1.0" encoding="UTF-8"?>
<svg version="1.1" xmlns="http://www.w3.org/2000/svg" width="1344" height="224">
<path d="M0 0 C443.52 0 887.04 0 1344 0 C1344 73.92 1344 147.84 1344 224 C900.48 224 456.96 224 0 224 C0 150.08 0 76.16 0 0 Z " fill="#2C2C2C" transform="translate(0,0)"/>
<path d="M0 0 C3.17181421 0.9397968 5.05114813 1.67614813 7.375 4 C7.375 4.66 7.375 5.32 7.375 6 C8.035 5.67 8.695 5.34 9.375 5 C13.22730471 4.63657503 15.6864353 4.66336837 19.1875 6.375 C22.36158103 10.18389724 22.75763714 14.17166953 23.375 19 C24.9528125 18.87625 24.9528125 18.87625 26.5625 18.75 C30.94387825 19.03730349 32.32345581 19.94845581 35.375 23 C36.54813353 25.34626706 36.51994615 26.78268219 36.55200195 29.39868164 C36.57125481 30.76634422 36.57125481 30.76634422 36.59089661 32.16163635 C36.59828354 33.15114792 36.60567047 34.14065948 36.61328125 35.16015625 C36.621353 36.1791954 36.62942474 37.19823456 36.63774109 38.24815369 C36.65159259 40.41110529 36.66230996 42.57407886 36.67016602 44.73706055 C36.68730457 48.02500808 36.73117284 51.31193067 36.77539062 54.59960938 C36.78552413 56.70311762 36.79403817 58.80663441 36.80078125 60.91015625 C36.81828934 61.8854982 36.83579742 62.86084015 36.85383606 63.86573792 C36.82624872 72.6716086 34.19161763 79.86535657 28.22265625 86.4296875 C19.47639992 93.86308083 9.36258415 94.79047368 -1.625 94 C-8.680333 92.30997795 -13.48376195 87.88058087 -18.625 83 C-20.11804834 81.64467938 -21.61117222 80.28944039 -23.10595703 78.93603516 C-27.57683443 74.87649504 -31.94997256 70.74511964 -36.1640625 66.41796875 C-37.77584885 64.79537155 -37.77584885 64.79537155 -40.4375 62.875 C-43.82951998 59.9675543 -44.48336529 57.35969322 -44.9375 53 C-44.57742323 49.54326301 -43.69884621 47.76512828 -41.625 45 C-38.55245875 42.95163917 -37.75331715 42.70543507 -34.25 42.6875 C-33.49976563 42.67074219 -32.74953125 42.65398437 -31.9765625 42.63671875 C-29.02284157 43.09302447 -27.13586993 44.42360719 -24.625 46 C-24.64594727 45.1529248 -24.66689453 44.30584961 -24.68847656 43.43310547 C-24.75694055 40.26859607 -24.80693987 37.10446609 -24.84472656 33.93945312 C-24.86475319 32.57376632 -24.89198332 31.20816431 -24.92675781 29.84277344 C-24.97566432 27.87212898 -24.99591347 25.90084017 -25.015625 23.9296875 C-25.03657227 22.74616699 -25.05751953 21.56264648 -25.07910156 20.34326172 C-24.53060772 16.30504952 -23.148761 14.15910111 -20.625 11 C-17.41048731 9.39274365 -14.18887464 9.94251815 -10.625 10 C-10.58375 9.278125 -10.5425 8.55625 -10.5 7.8125 C-8.85416085 2.52230273 -5.48859582 0 0 0 Z " fill="#2E2E2E" transform="translate(1056.625,65)"/>
<path d="M0 0 C9.58231808 5.76673441 16.06417949 13.98160098 19.58984375 24.55859375 C20.55953834 37.2892984 19.63110624 47.87262426 11.08984375 58.05859375 C4.13965529 65.27724443 -3.93168384 70.26566598 -14.125 70.7265625 C-15.53251688 70.73845701 -16.9400897 70.74481064 -18.34765625 70.74609375 C-19.05083984 70.75833984 -19.75402344 70.77058594 -20.47851562 70.78320312 C-24.639903 70.79490337 -27.6274443 70.21192193 -31.41015625 68.55859375 C-38.54226983 67.7462257 -45.77287472 68.85557554 -52.83911133 69.84667969 C-56.39427117 70.34203108 -59.81970047 70.66949586 -63.41015625 70.55859375 C-62.34619035 67.45535987 -61.00615147 64.84049596 -59.17578125 62.140625 C-54.39542362 55.54115631 -54.39542362 55.54115631 -52.265625 47.91796875 C-52.82272551 45.59728307 -52.82272551 45.59728307 -53.6328125 43.28515625 C-55.95152502 35.15218468 -55.58931265 24.82242503 -51.5390625 17.37109375 C-51.16652344 16.77296875 -50.79398438 16.17484375 -50.41015625 15.55859375 C-49.81203125 14.52734375 -49.21390625 13.49609375 -48.59765625 12.43359375 C-36.90399307 -2.93522072 -17.81181224 -8.62492417 0 0 Z " fill="#2D2D2D" transform="translate(1266.41015625,78.44140625)"/>
<path d="M0 0 C7.54328658 5.38420634 13.20209323 13.22415635 15.25 22.3125 C16.38999943 33.75950459 15.20540688 43.8664465 8.5625 53.5625 C1.20371227 62.51783269 -7.69133148 67.34728095 -19.20703125 68.7265625 C-30.19266612 69.18682063 -38.64065883 66.21475768 -47.125 59.25 C-54.18911032 52.48164954 -58.79324353 43.32091223 -59.04272461 33.51171875 C-59.1503177 21.20625743 -56.53593342 12.37679963 -47.75 3.3125 C-33.22796932 -9.01338237 -16.03676917 -9.74145538 0 0 Z " fill="#2D2D2D" transform="translate(499.75,80.6875)"/>
<path d="M0 0 C48.96405195 9.03814266 48.96405195 9.03814266 58.5234375 22.078125 C61.73799972 27.44164871 62.09814146 31.22988409 61.625 37.4375 C61.41044601 42.02708977 61.50506227 44.86755755 64.4296875 48.40625 C67.0912454 51.18744314 69.96826913 53.63269067 73 56 C68.01595832 62.03331362 62.58084697 67.5184171 57 73 C56.56429687 72.62488281 56.12859375 72.24976563 55.6796875 71.86328125 C54.42962425 70.7890927 53.17119151 69.72459648 51.90625 68.66796875 C50 67 50 67 47.375 64.125 C42.83613985 61.26719917 39.43573133 61.80915522 34.1875 62 C27.37502311 62 22.78487755 59.22105216 17.640625 54.98828125 C12.92832651 49.27742427 10.93560435 42.13994527 8.984375 35.13671875 C8.72368225 34.22291946 8.4629895 33.30912018 8.19439697 32.36763 C7.64959022 30.45180275 7.10860378 28.53488532 6.57128906 26.61694336 C5.74682815 23.67618639 4.909543 20.73930667 4.0703125 17.80273438 C3.540915 15.93510874 3.01224315 14.06727722 2.484375 12.19921875 C2.23443787 11.32110031 1.98450073 10.44298187 1.72698975 9.53825378 C1.49965149 8.72343033 1.27231323 7.90860687 1.03808594 7.0690918 C0.83697205 6.35375778 0.63585815 5.63842377 0.4286499 4.90141296 C0 3 0 3 0 0 Z " fill="#2D2D2D" transform="translate(634,75)"/>
<path d="M0 0 C1.65 0 3.3 0 5 0 C5 4.62 5 9.24 5 14 C17.21 14 29.42 14 42 14 C42 9.38 42 4.76 42 0 C43.65 0 45.3 0 47 0 C47 4.62 47 9.24 47 14 C51.62 14 56.24 14 61 14 C61 15.65 61 17.3 61 19 C56.38 19 51.76 19 47 19 C47 31.21 47 43.42 47 56 C51.62 56 56.24 56 61 56 C61 57.65 61 59.3 61 61 C56.38 61 51.76 61 47 61 C47 65.62 47 70.24 47 75 C45.35 75 43.7 75 42 75 C42 70.38 42 65.76 42 61 C29.79 61 17.58 61 5 61 C5 65.62 5 70.24 5 75 C3.35 75 1.7 75 0 75 C0 70.38 0 65.76 0 61 C-4.62 61 -9.24 61 -14 61 C-14 59.35 -14 57.7 -14 56 C-9.38 56 -4.76 56 0 56 C0 43.79 0 31.58 0 19 C-4.62 19 -9.24 19 -14 19 C-14 17.35 -14 15.7 -14 14 C-9.38 14 -4.76 14 0 14 C0 9.38 0 4.76 0 0 Z " fill="#C8C8C8" transform="translate(262,74)"/>
<path d="M0 0 C3.17181421 0.9397968 5.05114813 1.67614813 7.375 4 C7.375 4.66 7.375 5.32 7.375 6 C8.035 5.67 8.695 5.34 9.375 5 C13.22730471 4.63657503 15.6864353 4.66336837 19.1875 6.375 C22.36158103 10.18389724 22.75763714 14.17166953 23.375 19 C24.9528125 18.87625 24.9528125 18.87625 26.5625 18.75 C30.94387825 19.03730349 32.32345581 19.94845581 35.375 23 C36.54813353 25.34626706 36.51994615 26.78268219 36.55200195 29.39868164 C36.57125481 30.76634422 36.57125481 30.76634422 36.59089661 32.16163635 C36.59828354 33.15114792 36.60567047 34.14065948 36.61328125 35.16015625 C36.621353 36.1791954 36.62942474 37.19823456 36.63774109 38.24815369 C36.65159259 40.41110529 36.66230996 42.57407886 36.67016602 44.73706055 C36.68730457 48.02500808 36.73117284 51.31193067 36.77539062 54.59960938 C36.78552413 56.70311762 36.79403817 58.80663441 36.80078125 60.91015625 C36.81828934 61.8854982 36.83579742 62.86084015 36.85383606 63.86573792 C36.82624872 72.6716086 34.19161763 79.86535657 28.22265625 86.4296875 C19.47639992 93.86308083 9.36258415 94.79047368 -1.625 94 C-8.680333 92.30997795 -13.48376195 87.88058087 -18.625 83 C-20.11804834 81.64467938 -21.61117222 80.28944039 -23.10595703 78.93603516 C-27.57683443 74.87649504 -31.94997256 70.74511964 -36.1640625 66.41796875 C-37.77584885 64.79537155 -37.77584885 64.79537155 -40.4375 62.875 C-43.82951998 59.9675543 -44.48336529 57.35969322 -44.9375 53 C-44.57742323 49.54326301 -43.69884621 47.76512828 -41.625 45 C-38.55245875 42.95163917 -37.75331715 42.70543507 -34.25 42.6875 C-33.49976563 42.67074219 -32.74953125 42.65398437 -31.9765625 42.63671875 C-29.02284157 43.09302447 -27.13586993 44.42360719 -24.625 46 C-24.64594727 45.1529248 -24.66689453 44.30584961 -24.68847656 43.43310547 C-24.75694055 40.26859607 -24.80693987 37.10446609 -24.84472656 33.93945312 C-24.86475319 32.57376632 -24.89198332 31.20816431 -24.92675781 29.84277344 C-24.97566432 27.87212898 -24.99591347 25.90084017 -25.015625 23.9296875 C-25.03657227 22.74616699 -25.05751953 21.56264648 -25.07910156 20.34326172 C-24.53060772 16.30504952 -23.148761 14.15910111 -20.625 11 C-17.41048731 9.39274365 -14.18887464 9.94251815 -10.625 10 C-10.58375 9.278125 -10.5425 8.55625 -10.5 7.8125 C-8.85416085 2.52230273 -5.48859582 0 0 0 Z M-5.625 7 C-5.89186213 9.69540315 -5.97318073 12.15847464 -5.91796875 14.8515625 C-5.91160149 16.01261002 -5.91160149 16.01261002 -5.90510559 17.19711304 C-5.88828998 19.67342677 -5.85063395 22.14893158 -5.8125 24.625 C-5.79745682 26.30207159 -5.78376778 27.97915592 -5.77148438 29.65625 C-5.73837721 33.77114581 -5.68657637 37.88543569 -5.625 42 C-6.945 42 -8.265 42 -9.625 42 C-9.60928955 41.29391602 -9.5935791 40.58783203 -9.57739258 39.86035156 C-9.51497903 36.65698271 -9.47598889 33.45374188 -9.4375 30.25 C-9.41236328 29.13882813 -9.38722656 28.02765625 -9.36132812 26.8828125 C-9.35166016 25.81289062 -9.34199219 24.74296875 -9.33203125 23.640625 C-9.3163208 22.65610352 -9.30061035 21.67158203 -9.28442383 20.65722656 C-9.67534818 17.60717591 -10.59342944 16.25886277 -12.625 14 C-16.55575644 14.57452746 -16.55575644 14.57452746 -19.625 17 C-19.87081843 19.86436824 -19.99869381 22.6390314 -20.0390625 25.5078125 C-20.05842865 26.34843231 -20.0777948 27.18905212 -20.0977478 28.05514526 C-20.15761658 30.74499303 -20.20395771 33.43488343 -20.25 36.125 C-20.2881731 37.94663344 -20.32722444 39.7682487 -20.3671875 41.58984375 C-20.46332398 46.05974852 -20.54732769 50.52973779 -20.625 55 C-21.28886719 54.50628906 -21.95273438 54.01257813 -22.63671875 53.50390625 C-23.96123047 52.54291016 -23.96123047 52.54291016 -25.3125 51.5625 C-26.61767578 50.60537109 -26.61767578 50.60537109 -27.94921875 49.62890625 C-30.63963282 47.99109214 -32.50623521 47.28448192 -35.625 47 C-38.04804368 47.9214392 -38.04804368 47.9214392 -39.625 50 C-40.54619564 52.78106497 -40.54619564 52.78106497 -39.625 56 C-36.14201617 61.177124 -31.38676146 65.21160878 -26.66015625 69.21875 C-24.55131472 71.0644923 -22.58901458 73.00139417 -20.625 75 C-12.03426597 83.64107036 -6.25022899 89.00569836 6.3125 89.4375 C13.6026254 89.24278511 18.96758977 88.13874904 24.40625 83.12890625 C30.79370013 76.20480559 31.67886491 70.72055863 31.640625 61.51953125 C31.64253845 60.51033127 31.6444519 59.50113129 31.64642334 58.46134949 C31.64778156 56.33401235 31.6441105 54.20666682 31.63574219 52.0793457 C31.6250042 48.81377729 31.63566705 45.54875484 31.6484375 42.28320312 C31.6471165 40.21614462 31.64455533 38.14908645 31.640625 36.08203125 C31.64467346 35.10184525 31.64872192 34.12165924 31.65289307 33.11177063 C31.64658875 32.20710556 31.64028442 31.30244049 31.63378906 30.37036133 C31.63219788 29.57269852 31.63060669 28.77503571 31.62896729 27.95320129 C31.54634143 25.76465531 31.54634143 25.76465531 29.375 24 C26.875 23.58333333 26.875 23.58333333 24.375 24 C21.92108431 27.68087353 22.14697241 30.44355588 22.25 34.6875 C22.25902344 35.38939453 22.26804687 36.09128906 22.27734375 36.81445312 C22.30086296 38.54311525 22.33673287 40.27160145 22.375 42 C21.055 42 19.735 42 18.375 42 C18.39856567 40.70582153 18.39856567 40.70582153 18.42260742 39.38549805 C18.47375955 36.18190733 18.5113616 32.97852485 18.53979492 29.7746582 C18.55487397 28.38852081 18.5753405 27.00243106 18.60131836 25.61645508 C18.63773716 23.62341854 18.65313018 21.63003277 18.66796875 19.63671875 C18.69153442 17.83787231 18.69153442 17.83787231 18.71557617 16.00268555 C18.6250354 13.02349836 18.6250354 13.02349836 17.0168457 11.10864258 C14.67765268 9.52912205 13.12946306 9.57623645 10.375 10 C7.92213704 13.67929445 8.14271122 15.47377907 8.1796875 19.85546875 C8.18393234 20.84792351 8.18393234 20.84792351 8.18826294 21.86042786 C8.19944082 23.96963737 8.22454019 26.07841925 8.25 28.1875 C8.26003293 29.61913448 8.26915824 31.05077564 8.27734375 32.48242188 C8.29937205 35.98841977 8.33388515 39.49416813 8.375 43 C6.725 43 5.075 43 3.375 43 C3.38547363 41.91992676 3.39594727 40.83985352 3.40673828 39.72705078 C3.44288194 35.72773541 3.46587984 31.72843454 3.48486328 27.72900391 C3.49493376 25.99655735 3.50859089 24.26412784 3.52587891 22.53173828 C3.55008162 20.04455361 3.56147239 17.55759325 3.5703125 15.0703125 C3.58063507 14.29317902 3.59095764 13.51604553 3.60159302 12.71536255 C3.60199271 10.80874507 3.4973214 8.90268964 3.375 7 C2.715 6.34 2.055 5.68 1.375 5 C-2.67122502 4.63019987 -2.67122502 4.63019987 -5.625 7 Z " fill="#C9C9C9" transform="translate(1056.625,65)"/>
<path d="M0 0 C10.58150364 5.58468248 20.77118998 11.80029615 31 18 C32.5144873 18.91652344 32.5144873 18.91652344 34.05957031 19.8515625 C37.16600421 21.73225621 40.27086105 23.61552113 43.375 25.5 C44.3434082 26.08716797 45.31181641 26.67433594 46.30957031 27.27929688 C50.93921376 30.09649109 55.523008 32.94546365 60 36 C59.505 36.99 59.505 36.99 59 38 C56.56665039 38.6315918 56.56665039 38.6315918 53.34765625 39.19921875 C38.35931703 41.51482726 38.35931703 41.51482726 26.88012695 50.34863281 C25.411081 52.90145321 24.08437726 55.48009031 22.87792969 58.16699219 C21.52819098 60.98507846 19.71628811 63.42274465 17.875 65.9375 C17.03582031 67.12666016 17.03582031 67.12666016 16.1796875 68.33984375 C15.79039063 68.88769531 15.40109375 69.43554688 15 70 C12.70086498 67.70086498 12.58362878 66.79391 12.03515625 63.66796875 C11.87668213 62.79422607 11.71820801 61.9204834 11.55493164 61.02026367 C11.3924292 60.08545166 11.22992676 59.15063965 11.0625 58.1875 C10.71020939 56.249658 10.35605025 54.31215474 10 52.375 C9.74283203 50.97121094 9.74283203 50.97121094 9.48046875 49.5390625 C8.91829176 46.5682085 8.26567534 43.62805142 7.5625 40.6875 C6.07264946 34.41531152 4.71171425 28.11879213 3.375 21.8125 C3.15658447 20.8021167 2.93816895 19.7917334 2.71313477 18.75073242 C1.40070875 12.51249416 0.48516272 6.35703284 0 0 Z " fill="#CACACA" transform="translate(64,77)"/>
<path d="M0 0 C12.21 0 24.42 0 37 0 C37 12.21 37 24.42 37 37 C24.79 37 12.58 37 0 37 C0 24.79 0 12.58 0 0 Z " fill="#2C2C2C" transform="translate(267,93)"/>
<path d="M0 0 C48.96405195 9.03814266 48.96405195 9.03814266 58.5234375 22.078125 C61.73799972 27.44164871 62.09814146 31.22988409 61.625 37.4375 C61.41044601 42.02708977 61.50506227 44.86755755 64.4296875 48.40625 C67.0912454 51.18744314 69.96826913 53.63269067 73 56 C68.01595832 62.03331362 62.58084697 67.5184171 57 73 C56.56429687 72.62488281 56.12859375 72.24976563 55.6796875 71.86328125 C54.42962425 70.7890927 53.17119151 69.72459648 51.90625 68.66796875 C50 67 50 67 47.375 64.125 C42.83613985 61.26719917 39.43573133 61.80915522 34.1875 62 C27.37502311 62 22.78487755 59.22105216 17.640625 54.98828125 C12.92832651 49.27742427 10.93560435 42.13994527 8.984375 35.13671875 C8.72368225 34.22291946 8.4629895 33.30912018 8.19439697 32.36763 C7.64959022 30.45180275 7.10860378 28.53488532 6.57128906 26.61694336 C5.74682815 23.67618639 4.909543 20.73930667 4.0703125 17.80273438 C3.540915 15.93510874 3.01224315 14.06727722 2.484375 12.19921875 C2.23443787 11.32110031 1.98450073 10.44298187 1.72698975 9.53825378 C1.49965149 8.72343033 1.27231323 7.90860687 1.03808594 7.0690918 C0.83697205 6.35375778 0.63585815 5.63842377 0.4286499 4.90141296 C0 3 0 3 0 0 Z M12 8 C16.30478251 13.09167824 20.70097081 18.05883123 25.3125 22.875 C26.23192383 23.88820313 26.23192383 23.88820313 27.16992188 24.921875 C31.34108667 29.23597691 34.25890798 30.8067375 40.30151367 31.03173828 C40.86201416 31.02126465 41.42251465 31.01079102 42 31 C43.45882353 38.29411765 43.45882353 38.29411765 41.375 41.5 C38.57365267 43.269272 37.25077277 43.58347204 34 43 C32.25 41.9375 32.25 41.9375 31 40 C30.905979 38.91388428 30.81195801 37.82776855 30.71508789 36.70874023 C29.85786747 32.2628422 28.53516302 30.83330088 25.30859375 27.72265625 C24.84389175 27.26644394 24.37918976 26.81023163 23.90040588 26.3401947 C22.42635031 24.89947963 20.93277625 23.48114485 19.4375 22.0625 C18.42896814 21.08409291 17.42179109 20.10428724 16.41601562 19.12304688 C13.95698311 16.7346086 11.48505909 14.361298 9 12 C6.87592453 16.24815094 10.23744371 22.58678568 11.55004883 27.06591797 C12.17991747 29.22402019 12.79084682 31.38686368 13.40039062 33.55078125 C13.80093486 34.93522862 14.20259341 36.31935418 14.60546875 37.703125 C15.14917114 39.58499512 15.14917114 39.58499512 15.70385742 41.50488281 C18.09994722 47.96606601 21.5985123 51.97761555 27 56 C30.19718491 57.0657283 32.53745501 56.86192416 35.85375977 56.63085938 C45.55195294 56.07208999 45.55195294 56.07208999 50.12109375 59 C52.30059747 61.23181181 54.21856626 63.44204386 56 66 C57.10865985 65.08877273 58.21172219 64.17073341 59.3125 63.25 C59.92738281 62.73953125 60.54226563 62.2290625 61.17578125 61.703125 C63.05932329 59.94461466 64.51573656 58.10080364 66 56 C65.3503125 55.55914062 64.700625 55.11828125 64.03125 54.6640625 C57.36652413 49.29525555 57.36652413 49.29525555 56.67041016 44.93603516 C56.61103192 42.58678846 56.67665337 40.28348512 56.8125 37.9375 C57.31551972 29.61452009 57.31551972 29.61452009 53.09375 22.60546875 C45.76183284 16.98342033 38.78190768 14.4910957 29.8125 12.25 C28.65041016 11.94707031 27.48832031 11.64414063 26.29101562 11.33203125 C21.54505855 10.10392275 16.81539632 8.92436195 12 8 Z " fill="#CACACA" transform="translate(634,75)"/>
<path d="M0 0 C9.58231808 5.76673441 16.06417949 13.98160098 19.58984375 24.55859375 C20.55953834 37.2892984 19.63110624 47.87262426 11.08984375 58.05859375 C4.13965529 65.27724443 -3.93168384 70.26566598 -14.125 70.7265625 C-15.53251688 70.73845701 -16.9400897 70.74481064 -18.34765625 70.74609375 C-19.05083984 70.75833984 -19.75402344 70.77058594 -20.47851562 70.78320312 C-24.639903 70.79490337 -27.6274443 70.21192193 -31.41015625 68.55859375 C-38.54226983 67.7462257 -45.77287472 68.85557554 -52.83911133 69.84667969 C-56.39427117 70.34203108 -59.81970047 70.66949586 -63.41015625 70.55859375 C-62.34619035 67.45535987 -61.00615147 64.84049596 -59.17578125 62.140625 C-54.39542362 55.54115631 -54.39542362 55.54115631 -52.265625 47.91796875 C-52.82272551 45.59728307 -52.82272551 45.59728307 -53.6328125 43.28515625 C-55.95152502 35.15218468 -55.58931265 24.82242503 -51.5390625 17.37109375 C-51.16652344 16.77296875 -50.79398438 16.17484375 -50.41015625 15.55859375 C-49.81203125 14.52734375 -49.21390625 13.49609375 -48.59765625 12.43359375 C-36.90399307 -2.93522072 -17.81181224 -8.62492417 0 0 Z M-44.23046875 13.953125 C-49.01575608 21.47781594 -51.74788292 29.56451655 -50.41015625 38.55859375 C-49.59405002 40.48265876 -48.75944757 42.39894462 -47.91015625 44.30859375 C-46.32517885 48.52615347 -46.15647095 49.95249511 -47.92578125 54.1796875 C-49.86781936 57.47046217 -52.11873231 60.50493994 -54.41015625 63.55859375 C-54.41015625 63.88859375 -54.41015625 64.21859375 -54.41015625 64.55859375 C-49.02031687 64.65152202 -43.83862807 64.41062316 -38.47265625 63.87109375 C-32.90009132 63.42768536 -28.91855885 64.01152547 -23.69140625 65.8359375 C-15.0317051 68.57916475 -7.2959032 65.32414223 0.58984375 61.55859375 C7.52740218 57.54868498 11.99993144 49.99962011 14.46484375 42.55859375 C17.04111956 32.54659974 15.41288376 24.29829954 10.3046875 15.29296875 C4.62488608 7.00267364 -3.65131481 2.42994052 -13.41015625 0.55859375 C-25.19710048 -1.10182796 -37.11468948 4.59266858 -44.23046875 13.953125 Z " fill="#CDCDCD" transform="translate(1266.41015625,78.44140625)"/>
<path d="M0 0 C7.54328658 5.38420634 13.20209323 13.22415635 15.25 22.3125 C16.38999943 33.75950459 15.20540688 43.8664465 8.5625 53.5625 C1.20371227 62.51783269 -7.69133148 67.34728095 -19.20703125 68.7265625 C-30.19266612 69.18682063 -38.64065883 66.21475768 -47.125 59.25 C-54.18911032 52.48164954 -58.79324353 43.32091223 -59.04272461 33.51171875 C-59.1503177 21.20625743 -56.53593342 12.37679963 -47.75 3.3125 C-33.22796932 -9.01338237 -16.03676917 -9.74145538 0 0 Z M-48.75 11.3125 C-54.92565216 19.50868215 -54.42696412 29.52553307 -53.75 39.3125 C-51.78690156 47.68523312 -45.77656274 54.55182226 -38.6875 59.1875 C-30.8685246 63.91525257 -22.67249334 64.32276227 -13.75 63.3125 C-4.40363071 60.29373015 3.09637186 54.8306949 7.625 46.0625 C11.24026506 38.20322814 11.95581994 27.12178912 9.125 18.8125 C4.11372068 9.45811194 -2.19579067 3.15677952 -12.0625 -1.125 C-27.62685124 -3.49922307 -38.00819661 -0.2933607 -48.75 11.3125 Z " fill="#C9C9C9" transform="translate(499.75,80.6875)"/>
<path d="M0 0 C7.49210493 3.57021525 14.5665623 7.64202 21.625 12 C22.60984375 12.60328125 23.5946875 13.2065625 24.609375 13.828125 C30.09091649 17.19013711 35.552121 20.58375284 41 24 C40 26 40 26 37.015625 27 C35.77296875 27.33 34.5303125 27.66 33.25 28 C30.82838598 28.64846568 28.41128502 29.31412337 26 30 C25.13246094 30.21527344 24.26492187 30.43054688 23.37109375 30.65234375 C19.68766471 32.74589074 17.99294993 36.00978506 15.8125 39.5625 C11.21772024 46.89113988 11.21772024 46.89113988 9 48 C8.79842285 47.01193359 8.5968457 46.02386719 8.38916016 45.00585938 C7.63424958 41.30790646 6.87702817 37.61042977 6.11914062 33.91308594 C5.79267257 32.31881208 5.46681479 30.72441312 5.14160156 29.12988281 C4.67156376 26.82583248 4.19926594 24.52225474 3.7265625 22.21875 C3.58376862 21.51633179 3.44097473 20.81391357 3.29385376 20.09020996 C2.57608367 16.60323423 1.79411025 13.15138288 0.89990234 9.70507812 C0.07132887 6.29367523 -0.17439643 3.48792862 0 0 Z " fill="#2E2E2E" transform="translate(71,87)"/>
<path d="M0 0 C19.8 0 39.6 0 60 0 C60 5.94 60 11.88 60 18 C58.68 18 57.36 18 56 18 C56 13.38 56 8.76 56 4 C48.08 4 40.16 4 32 4 C32 25.78 32 47.56 32 70 C36.62 70 41.24 70 46 70 C46 71.32 46 72.64 46 74 C35.44 74 24.88 74 14 74 C14 72.68 14 71.36 14 70 C18.62 70 23.24 70 28 70 C28 48.22 28 26.44 28 4 C20.08 4 12.16 4 4 4 C4 8.62 4 13.24 4 18 C2.68 18 1.36 18 0 18 C0 12.06 0 6.12 0 0 Z " fill="#D5D5D5" transform="translate(834,75)"/>
</svg>
