<svg width="247" height="323" viewBox="0 0 247 323" fill="none" xmlns="http://www.w3.org/2000/svg">
<path d="M150.529 8.66309L129.924 38.6106" stroke="#19223F" stroke-width="5.23432" stroke-miterlimit="10" stroke-linecap="round"/>
<path d="M152.817 32.3L127.636 14.9745" stroke="#19223F" stroke-width="5.23432" stroke-miterlimit="10" stroke-linecap="round"/>
<path d="M190.289 36.0189L169.683 65.9665" stroke="#19223F" stroke-width="5.23432" stroke-miterlimit="10" stroke-linecap="round"/>
<path d="M192.577 59.6559L167.396 42.3303" stroke="#19223F" stroke-width="5.23432" stroke-miterlimit="10" stroke-linecap="round"/>
<path d="M230.047 63.3748L209.442 93.3224" stroke="#19223F" stroke-width="5.23432" stroke-miterlimit="10" stroke-linecap="round"/>
<path d="M232.335 87.0118L207.154 69.6862" stroke="#19223F" stroke-width="5.23432" stroke-miterlimit="10" stroke-linecap="round"/>
<path d="M269.807 90.7319L249.202 120.679" stroke="#19223F" stroke-width="5.23432" stroke-miterlimit="10" stroke-linecap="round"/>
<path d="M272.095 114.369L246.914 97.0433" stroke="#19223F" stroke-width="5.23432" stroke-miterlimit="10" stroke-linecap="round"/>
<path d="M121.207 51.2812L100.601 81.2289" stroke="#19223F" stroke-width="5.23432" stroke-miterlimit="10" stroke-linecap="round"/>
<path d="M123.494 74.9182L98.3135 57.5927" stroke="#19223F" stroke-width="5.23432" stroke-miterlimit="10" stroke-linecap="round"/>
<path d="M160.966 78.6371L140.361 108.585" stroke="#19223F" stroke-width="5.23432" stroke-miterlimit="10" stroke-linecap="round"/>
<path d="M163.254 102.274L138.073 84.9485" stroke="#19223F" stroke-width="5.23432" stroke-miterlimit="10" stroke-linecap="round"/>
<path d="M200.725 105.993L180.12 135.941" stroke="#19223F" stroke-width="5.23432" stroke-miterlimit="10" stroke-linecap="round"/>
<path d="M203.013 129.63L177.832 112.304" stroke="#19223F" stroke-width="5.23432" stroke-miterlimit="10" stroke-linecap="round"/>
<path d="M240.484 133.35L219.879 163.297" stroke="#19223F" stroke-width="5.23432" stroke-miterlimit="10" stroke-linecap="round"/>
<path d="M242.772 156.987L217.591 139.661" stroke="#19223F" stroke-width="5.23432" stroke-miterlimit="10" stroke-linecap="round"/>
<path d="M91.8418 93.9592L71.2781 123.846" stroke="#19223F" stroke-width="5.23432" stroke-miterlimit="10" stroke-linecap="round"/>
<path d="M94.1295 117.596L68.9487 100.271" stroke="#19223F" stroke-width="5.23432" stroke-miterlimit="10" stroke-linecap="round"/>
<path d="M131.601 121.316L111.037 151.203" stroke="#19223F" stroke-width="5.23432" stroke-miterlimit="10" stroke-linecap="round"/>
<path d="M133.889 144.952L108.708 127.626" stroke="#19223F" stroke-width="5.23432" stroke-miterlimit="10" stroke-linecap="round"/>
<path d="M171.36 148.671L150.797 178.558" stroke="#19223F" stroke-width="5.23432" stroke-miterlimit="10" stroke-linecap="round"/>
<path d="M173.648 172.308L148.467 154.982" stroke="#19223F" stroke-width="5.23432" stroke-miterlimit="10" stroke-linecap="round"/>
<path d="M211.119 176.028L190.555 205.915" stroke="#19223F" stroke-width="5.23432" stroke-miterlimit="10" stroke-linecap="round"/>
<path d="M213.407 199.665L188.226 182.339" stroke="#19223F" stroke-width="5.23432" stroke-miterlimit="10" stroke-linecap="round"/>
<path d="M250.879 203.383L230.315 233.27" stroke="#19223F" stroke-width="5.23432" stroke-miterlimit="10" stroke-linecap="round"/>
<path d="M253.167 227.02L227.986 209.695" stroke="#19223F" stroke-width="5.23432" stroke-miterlimit="10" stroke-linecap="round"/>
<path d="M62.519 136.577L41.9137 166.525" stroke="#19223F" stroke-width="5.23432" stroke-miterlimit="10" stroke-linecap="round"/>
<path d="M64.8067 160.214L39.626 142.889" stroke="#19223F" stroke-width="5.23432" stroke-miterlimit="10" stroke-linecap="round"/>
<path d="M102.278 163.933L81.6725 193.881" stroke="#19223F" stroke-width="5.23432" stroke-miterlimit="10" stroke-linecap="round"/>
<path d="M104.566 187.57L79.3848 170.245" stroke="#19223F" stroke-width="5.23432" stroke-miterlimit="10" stroke-linecap="round"/>
<path d="M142.037 191.289L121.432 221.237" stroke="#19223F" stroke-width="5.23432" stroke-miterlimit="10" stroke-linecap="round"/>
<path d="M144.325 214.926L119.144 197.6" stroke="#19223F" stroke-width="5.23432" stroke-miterlimit="10" stroke-linecap="round"/>
<path d="M181.796 218.646L161.191 248.594" stroke="#19223F" stroke-width="5.23432" stroke-miterlimit="10" stroke-linecap="round"/>
<path d="M184.085 242.283L158.904 224.958" stroke="#19223F" stroke-width="5.23432" stroke-miterlimit="10" stroke-linecap="round"/>
<path d="M221.556 246.002L200.95 275.95" stroke="#19223F" stroke-width="5.23432" stroke-miterlimit="10" stroke-linecap="round"/>
<path d="M223.843 269.639L198.663 252.313" stroke="#19223F" stroke-width="5.23432" stroke-miterlimit="10" stroke-linecap="round"/>
<path d="M261.314 273.359L240.709 303.306" stroke="#19223F" stroke-width="5.23432" stroke-miterlimit="10" stroke-linecap="round"/>
<path d="M263.603 296.995L238.422 279.669" stroke="#19223F" stroke-width="5.23432" stroke-miterlimit="10" stroke-linecap="round"/>
<path d="M33.1538 179.255L12.5902 209.142" stroke="#19223F" stroke-width="5.23432" stroke-miterlimit="10" stroke-linecap="round"/>
<path d="M35.4415 202.892L10.2607 185.567" stroke="#19223F" stroke-width="5.23432" stroke-miterlimit="10" stroke-linecap="round"/>
<path d="M72.9131 206.611L52.3495 236.498" stroke="#19223F" stroke-width="5.23432" stroke-miterlimit="10" stroke-linecap="round"/>
<path d="M75.2008 230.248L50.02 212.923" stroke="#19223F" stroke-width="5.23432" stroke-miterlimit="10" stroke-linecap="round"/>
<path d="M112.672 233.967L92.1083 263.854" stroke="#19223F" stroke-width="5.23432" stroke-miterlimit="10" stroke-linecap="round"/>
<path d="M114.96 257.604L89.7788 240.278" stroke="#19223F" stroke-width="5.23432" stroke-miterlimit="10" stroke-linecap="round"/>
<path d="M152.432 261.324L131.868 291.211" stroke="#19223F" stroke-width="5.23432" stroke-miterlimit="10" stroke-linecap="round"/>
<path d="M154.719 284.961L129.539 267.636" stroke="#19223F" stroke-width="5.23432" stroke-miterlimit="10" stroke-linecap="round"/>
<path d="M192.191 288.68L171.627 318.567" stroke="#19223F" stroke-width="5.23432" stroke-miterlimit="10" stroke-linecap="round"/>
<path d="M194.479 312.317L169.298 294.992" stroke="#19223F" stroke-width="5.23432" stroke-miterlimit="10" stroke-linecap="round"/>
<path d="M231.95 316.036L211.386 345.923" stroke="#19223F" stroke-width="5.23432" stroke-miterlimit="10" stroke-linecap="round"/>
<path d="M234.237 339.673L209.057 322.348" stroke="#19223F" stroke-width="5.23432" stroke-miterlimit="10" stroke-linecap="round"/>
</svg>
