<svg width="197" height="90" viewBox="0 0 197 90" fill="none" xmlns="http://www.w3.org/2000/svg">
<path d="M36.1996 62.5399L23.2474 75.9482L10.2951 89.3566L5.15278 71.4616L6.50983e-05 53.5305L18.0947 58.0173L36.1996 62.5399Z" fill="#19223F"/>
<path d="M67.2465 53.6183L54.2942 67.0266L41.342 80.4349L36.1997 62.54L31.0469 44.6088L49.1416 49.0957L67.2465 53.6183Z" fill="#19223F"/>
<path d="M98.2933 44.6966L85.3411 58.1049L72.3888 71.5132L67.2465 53.6183L62.0938 35.6872L80.1884 40.174L98.2933 44.6966Z" fill="#19223F"/>
<path d="M129.34 35.775L116.387 49.1833L103.435 62.5916L98.2929 44.6966L93.1402 26.7655L111.235 31.2523L129.34 35.775Z" fill="#19223F"/>
<path d="M160.387 26.8533L147.434 40.2616L134.482 53.6699L129.34 35.775L124.187 17.8439L142.282 22.3307L160.387 26.8533Z" fill="#19223F"/>
<path d="M191.433 17.9316L178.481 31.3399L165.529 44.7482L160.387 26.8533L155.234 8.92215L173.329 13.409L191.433 17.9316Z" fill="#19223F"/>
</svg>
